# xmcd
#
# Track frame offsets: 
#        150
#        19207
#        41059
#        69187
#        94440
#        113215
#        134935
#        155675
#        168396
#        203829
#        230849
#
# Disc length: 3410 seconds
#
# Revision: 0
# Processed by: cddbd v1.5.2PL0 Copyright (c) Steve Scherf et al.
# Submitted via: ExactAudioCopy v0.99pb5
#
DISCID=a30d500b
DTITLE=Mike Pritchard - The Way I See It
DYEAR=2001
DGENRE=blues
TTITLE0=Don't Leave Her Cryin' In The Night
TTITLE1=Jacqueline
TTITLE2=Since You Left Me
TTITLE3=You're The Center Of My Universe
TTITLE4=I've Got Your Heart
TTITLE5=Wednesday Morning
TTITLE6=Make Up A Lover
TTITLE7=It's Your Pride
TTITLE8=Do Me A Favor
TTITLE9=I'll Be Here
TTITLE10=Out Of My Lonely Mind
EXTD=
EXTT0=
EXTT1=
EXTT2=
EXTT3=
EXTT4=
EXTT5=
EXTT6=
EXTT7=
EXTT8=
EXTT9=
EXTT10=
PLAYORDER=
